<mxfile host="app.diagrams.net" agent="Mozilla/5.0 (Macintosh; Intel Mac OS X 10_15_7) AppleWebKit/537.36 (KHTML, like Gecko) Chrome/137.0.0.0 Safari/537.36" version="27.2.0">
  <diagram name="Page-1" id="1pzq0b7cTsPI9foyDski">
    <mxGraphModel dx="673" dy="407" grid="1" gridSize="10" guides="1" tooltips="1" connect="1" arrows="1" fold="1" page="1" pageScale="1" pageWidth="3300" pageHeight="4681" math="0" shadow="0">
      <root>
        <mxCell id="0" />
        <mxCell id="1" parent="0" />
        <mxCell id="z_BVboNfzT4I1Vo-alxG-1" value="" style="rounded=1;whiteSpace=wrap;html=1;movable=1;resizable=1;rotatable=1;deletable=1;editable=1;locked=0;connectable=1;" vertex="1" parent="1">
          <mxGeometry x="160" y="10" width="600" height="90" as="geometry" />
        </mxCell>
        <mxCell id="z_BVboNfzT4I1Vo-alxG-2" value="" style="rounded=1;whiteSpace=wrap;html=1;" vertex="1" parent="1">
          <mxGeometry x="160" y="140" width="600" height="220" as="geometry" />
        </mxCell>
        <mxCell id="z_BVboNfzT4I1Vo-alxG-3" value="" style="shape=mxgraph.cisco.switches.atm_fast_gigabit_etherswitch;sketch=0;html=1;pointerEvents=1;dashed=0;fillColor=#036897;strokeColor=#ffffff;strokeWidth=2;verticalLabelPosition=bottom;verticalAlign=top;align=center;outlineConnect=0;" vertex="1" parent="1">
          <mxGeometry x="700" y="17.5" width="40" height="30" as="geometry" />
        </mxCell>
        <mxCell id="z_BVboNfzT4I1Vo-alxG-28" value="" style="group" vertex="1" connectable="0" parent="1">
          <mxGeometry x="170" y="20" width="250" height="27.5" as="geometry" />
        </mxCell>
        <mxCell id="z_BVboNfzT4I1Vo-alxG-5" value="" style="rounded=0;whiteSpace=wrap;html=1;movable=1;resizable=1;rotatable=1;deletable=1;editable=1;locked=0;connectable=1;" vertex="1" parent="z_BVboNfzT4I1Vo-alxG-28">
          <mxGeometry width="250" height="27.5" as="geometry" />
        </mxCell>
        <mxCell id="z_BVboNfzT4I1Vo-alxG-21" value="" style="group" vertex="1" connectable="0" parent="z_BVboNfzT4I1Vo-alxG-28">
          <mxGeometry x="10" y="5" width="230" height="15" as="geometry" />
        </mxCell>
        <mxCell id="z_BVboNfzT4I1Vo-alxG-7" value="" style="rounded=0;whiteSpace=wrap;html=1;" vertex="1" parent="z_BVboNfzT4I1Vo-alxG-21">
          <mxGeometry width="10" height="15" as="geometry" />
        </mxCell>
        <mxCell id="z_BVboNfzT4I1Vo-alxG-8" value="" style="rounded=0;whiteSpace=wrap;html=1;" vertex="1" parent="z_BVboNfzT4I1Vo-alxG-21">
          <mxGeometry x="20" width="10" height="15" as="geometry" />
        </mxCell>
        <mxCell id="z_BVboNfzT4I1Vo-alxG-10" value="" style="rounded=0;whiteSpace=wrap;html=1;" vertex="1" parent="z_BVboNfzT4I1Vo-alxG-21">
          <mxGeometry x="40" width="10" height="15" as="geometry" />
        </mxCell>
        <mxCell id="z_BVboNfzT4I1Vo-alxG-11" value="" style="rounded=0;whiteSpace=wrap;html=1;" vertex="1" parent="z_BVboNfzT4I1Vo-alxG-21">
          <mxGeometry x="60" width="10" height="15" as="geometry" />
        </mxCell>
        <mxCell id="z_BVboNfzT4I1Vo-alxG-12" value="" style="rounded=0;whiteSpace=wrap;html=1;" vertex="1" parent="z_BVboNfzT4I1Vo-alxG-21">
          <mxGeometry x="80" width="10" height="15" as="geometry" />
        </mxCell>
        <mxCell id="z_BVboNfzT4I1Vo-alxG-13" value="" style="rounded=0;whiteSpace=wrap;html=1;" vertex="1" parent="z_BVboNfzT4I1Vo-alxG-21">
          <mxGeometry x="100" width="10" height="15" as="geometry" />
        </mxCell>
        <mxCell id="z_BVboNfzT4I1Vo-alxG-14" value="" style="rounded=0;whiteSpace=wrap;html=1;" vertex="1" parent="z_BVboNfzT4I1Vo-alxG-21">
          <mxGeometry x="120" width="10" height="15" as="geometry" />
        </mxCell>
        <mxCell id="z_BVboNfzT4I1Vo-alxG-15" value="" style="rounded=0;whiteSpace=wrap;html=1;" vertex="1" parent="z_BVboNfzT4I1Vo-alxG-21">
          <mxGeometry x="140" width="10" height="15" as="geometry" />
        </mxCell>
        <mxCell id="z_BVboNfzT4I1Vo-alxG-16" value="" style="rounded=0;whiteSpace=wrap;html=1;" vertex="1" parent="z_BVboNfzT4I1Vo-alxG-21">
          <mxGeometry x="160" width="10" height="15" as="geometry" />
        </mxCell>
        <mxCell id="z_BVboNfzT4I1Vo-alxG-17" value="" style="rounded=0;whiteSpace=wrap;html=1;" vertex="1" parent="z_BVboNfzT4I1Vo-alxG-21">
          <mxGeometry x="180" width="10" height="15" as="geometry" />
        </mxCell>
        <mxCell id="z_BVboNfzT4I1Vo-alxG-18" value="" style="rounded=0;whiteSpace=wrap;html=1;" vertex="1" parent="z_BVboNfzT4I1Vo-alxG-21">
          <mxGeometry x="200" width="10" height="15" as="geometry" />
        </mxCell>
        <mxCell id="z_BVboNfzT4I1Vo-alxG-19" value="" style="rounded=0;whiteSpace=wrap;html=1;" vertex="1" parent="z_BVboNfzT4I1Vo-alxG-21">
          <mxGeometry x="220" width="10" height="15" as="geometry" />
        </mxCell>
        <mxCell id="z_BVboNfzT4I1Vo-alxG-29" value="" style="group" vertex="1" connectable="0" parent="1">
          <mxGeometry x="170" y="60" width="250" height="27.5" as="geometry" />
        </mxCell>
        <mxCell id="z_BVboNfzT4I1Vo-alxG-30" value="" style="rounded=0;whiteSpace=wrap;html=1;movable=1;resizable=1;rotatable=1;deletable=1;editable=1;locked=0;connectable=1;" vertex="1" parent="z_BVboNfzT4I1Vo-alxG-29">
          <mxGeometry width="250" height="27.5" as="geometry" />
        </mxCell>
        <mxCell id="z_BVboNfzT4I1Vo-alxG-31" value="" style="group" vertex="1" connectable="0" parent="z_BVboNfzT4I1Vo-alxG-29">
          <mxGeometry x="10" y="5" width="230" height="15" as="geometry" />
        </mxCell>
        <mxCell id="z_BVboNfzT4I1Vo-alxG-32" value="" style="rounded=0;whiteSpace=wrap;html=1;" vertex="1" parent="z_BVboNfzT4I1Vo-alxG-31">
          <mxGeometry width="10" height="15" as="geometry" />
        </mxCell>
        <mxCell id="z_BVboNfzT4I1Vo-alxG-33" value="" style="rounded=0;whiteSpace=wrap;html=1;" vertex="1" parent="z_BVboNfzT4I1Vo-alxG-31">
          <mxGeometry x="20" width="10" height="15" as="geometry" />
        </mxCell>
        <mxCell id="z_BVboNfzT4I1Vo-alxG-34" value="" style="rounded=0;whiteSpace=wrap;html=1;" vertex="1" parent="z_BVboNfzT4I1Vo-alxG-31">
          <mxGeometry x="40" width="10" height="15" as="geometry" />
        </mxCell>
        <mxCell id="z_BVboNfzT4I1Vo-alxG-35" value="" style="rounded=0;whiteSpace=wrap;html=1;" vertex="1" parent="z_BVboNfzT4I1Vo-alxG-31">
          <mxGeometry x="60" width="10" height="15" as="geometry" />
        </mxCell>
        <mxCell id="z_BVboNfzT4I1Vo-alxG-36" value="" style="rounded=0;whiteSpace=wrap;html=1;" vertex="1" parent="z_BVboNfzT4I1Vo-alxG-31">
          <mxGeometry x="80" width="10" height="15" as="geometry" />
        </mxCell>
        <mxCell id="z_BVboNfzT4I1Vo-alxG-37" value="" style="rounded=0;whiteSpace=wrap;html=1;" vertex="1" parent="z_BVboNfzT4I1Vo-alxG-31">
          <mxGeometry x="100" width="10" height="15" as="geometry" />
        </mxCell>
        <mxCell id="z_BVboNfzT4I1Vo-alxG-38" value="" style="rounded=0;whiteSpace=wrap;html=1;" vertex="1" parent="z_BVboNfzT4I1Vo-alxG-31">
          <mxGeometry x="120" width="10" height="15" as="geometry" />
        </mxCell>
        <mxCell id="z_BVboNfzT4I1Vo-alxG-39" value="" style="rounded=0;whiteSpace=wrap;html=1;" vertex="1" parent="z_BVboNfzT4I1Vo-alxG-31">
          <mxGeometry x="140" width="10" height="15" as="geometry" />
        </mxCell>
        <mxCell id="z_BVboNfzT4I1Vo-alxG-40" value="" style="rounded=0;whiteSpace=wrap;html=1;" vertex="1" parent="z_BVboNfzT4I1Vo-alxG-31">
          <mxGeometry x="160" width="10" height="15" as="geometry" />
        </mxCell>
        <mxCell id="z_BVboNfzT4I1Vo-alxG-41" value="" style="rounded=0;whiteSpace=wrap;html=1;" vertex="1" parent="z_BVboNfzT4I1Vo-alxG-31">
          <mxGeometry x="180" width="10" height="15" as="geometry" />
        </mxCell>
        <mxCell id="z_BVboNfzT4I1Vo-alxG-42" value="" style="rounded=0;whiteSpace=wrap;html=1;" vertex="1" parent="z_BVboNfzT4I1Vo-alxG-31">
          <mxGeometry x="200" width="10" height="15" as="geometry" />
        </mxCell>
        <mxCell id="z_BVboNfzT4I1Vo-alxG-43" value="" style="rounded=0;whiteSpace=wrap;html=1;" vertex="1" parent="z_BVboNfzT4I1Vo-alxG-31">
          <mxGeometry x="220" width="10" height="15" as="geometry" />
        </mxCell>
        <mxCell id="z_BVboNfzT4I1Vo-alxG-45" value="" style="group" vertex="1" connectable="0" parent="1">
          <mxGeometry x="425" y="20" width="250" height="27.5" as="geometry" />
        </mxCell>
        <mxCell id="z_BVboNfzT4I1Vo-alxG-46" value="" style="rounded=0;whiteSpace=wrap;html=1;movable=1;resizable=1;rotatable=1;deletable=1;editable=1;locked=0;connectable=1;" vertex="1" parent="z_BVboNfzT4I1Vo-alxG-45">
          <mxGeometry width="250" height="27.5" as="geometry" />
        </mxCell>
        <mxCell id="z_BVboNfzT4I1Vo-alxG-47" value="" style="group" vertex="1" connectable="0" parent="z_BVboNfzT4I1Vo-alxG-45">
          <mxGeometry x="10" y="5" width="230" height="15" as="geometry" />
        </mxCell>
        <mxCell id="z_BVboNfzT4I1Vo-alxG-48" value="" style="rounded=0;whiteSpace=wrap;html=1;" vertex="1" parent="z_BVboNfzT4I1Vo-alxG-47">
          <mxGeometry width="10" height="15" as="geometry" />
        </mxCell>
        <mxCell id="z_BVboNfzT4I1Vo-alxG-49" value="" style="rounded=0;whiteSpace=wrap;html=1;" vertex="1" parent="z_BVboNfzT4I1Vo-alxG-47">
          <mxGeometry x="20" width="10" height="15" as="geometry" />
        </mxCell>
        <mxCell id="z_BVboNfzT4I1Vo-alxG-50" value="" style="rounded=0;whiteSpace=wrap;html=1;" vertex="1" parent="z_BVboNfzT4I1Vo-alxG-47">
          <mxGeometry x="40" width="10" height="15" as="geometry" />
        </mxCell>
        <mxCell id="z_BVboNfzT4I1Vo-alxG-51" value="" style="rounded=0;whiteSpace=wrap;html=1;" vertex="1" parent="z_BVboNfzT4I1Vo-alxG-47">
          <mxGeometry x="60" width="10" height="15" as="geometry" />
        </mxCell>
        <mxCell id="z_BVboNfzT4I1Vo-alxG-52" value="" style="rounded=0;whiteSpace=wrap;html=1;" vertex="1" parent="z_BVboNfzT4I1Vo-alxG-47">
          <mxGeometry x="80" width="10" height="15" as="geometry" />
        </mxCell>
        <mxCell id="z_BVboNfzT4I1Vo-alxG-53" value="" style="rounded=0;whiteSpace=wrap;html=1;" vertex="1" parent="z_BVboNfzT4I1Vo-alxG-47">
          <mxGeometry x="100" width="10" height="15" as="geometry" />
        </mxCell>
        <mxCell id="z_BVboNfzT4I1Vo-alxG-54" value="" style="rounded=0;whiteSpace=wrap;html=1;" vertex="1" parent="z_BVboNfzT4I1Vo-alxG-47">
          <mxGeometry x="120" width="10" height="15" as="geometry" />
        </mxCell>
        <mxCell id="z_BVboNfzT4I1Vo-alxG-55" value="" style="rounded=0;whiteSpace=wrap;html=1;" vertex="1" parent="z_BVboNfzT4I1Vo-alxG-47">
          <mxGeometry x="140" width="10" height="15" as="geometry" />
        </mxCell>
        <mxCell id="z_BVboNfzT4I1Vo-alxG-56" value="" style="rounded=0;whiteSpace=wrap;html=1;" vertex="1" parent="z_BVboNfzT4I1Vo-alxG-47">
          <mxGeometry x="160" width="10" height="15" as="geometry" />
        </mxCell>
        <mxCell id="z_BVboNfzT4I1Vo-alxG-57" value="" style="rounded=0;whiteSpace=wrap;html=1;" vertex="1" parent="z_BVboNfzT4I1Vo-alxG-47">
          <mxGeometry x="180" width="10" height="15" as="geometry" />
        </mxCell>
        <mxCell id="z_BVboNfzT4I1Vo-alxG-58" value="" style="rounded=0;whiteSpace=wrap;html=1;" vertex="1" parent="z_BVboNfzT4I1Vo-alxG-47">
          <mxGeometry x="200" width="10" height="15" as="geometry" />
        </mxCell>
        <mxCell id="z_BVboNfzT4I1Vo-alxG-59" value="" style="rounded=0;whiteSpace=wrap;html=1;" vertex="1" parent="z_BVboNfzT4I1Vo-alxG-47">
          <mxGeometry x="220" width="10" height="15" as="geometry" />
        </mxCell>
        <mxCell id="z_BVboNfzT4I1Vo-alxG-60" value="" style="group" vertex="1" connectable="0" parent="1">
          <mxGeometry x="425" y="60" width="250" height="27.5" as="geometry" />
        </mxCell>
        <mxCell id="z_BVboNfzT4I1Vo-alxG-61" value="" style="rounded=0;whiteSpace=wrap;html=1;movable=1;resizable=1;rotatable=1;deletable=1;editable=1;locked=0;connectable=1;" vertex="1" parent="z_BVboNfzT4I1Vo-alxG-60">
          <mxGeometry width="250" height="27.5" as="geometry" />
        </mxCell>
        <mxCell id="z_BVboNfzT4I1Vo-alxG-62" value="" style="group" vertex="1" connectable="0" parent="z_BVboNfzT4I1Vo-alxG-60">
          <mxGeometry x="10" y="5" width="230" height="15" as="geometry" />
        </mxCell>
        <mxCell id="z_BVboNfzT4I1Vo-alxG-63" value="" style="rounded=0;whiteSpace=wrap;html=1;" vertex="1" parent="z_BVboNfzT4I1Vo-alxG-62">
          <mxGeometry width="10" height="15" as="geometry" />
        </mxCell>
        <mxCell id="z_BVboNfzT4I1Vo-alxG-64" value="" style="rounded=0;whiteSpace=wrap;html=1;" vertex="1" parent="z_BVboNfzT4I1Vo-alxG-62">
          <mxGeometry x="20" width="10" height="15" as="geometry" />
        </mxCell>
        <mxCell id="z_BVboNfzT4I1Vo-alxG-65" value="" style="rounded=0;whiteSpace=wrap;html=1;" vertex="1" parent="z_BVboNfzT4I1Vo-alxG-62">
          <mxGeometry x="40" width="10" height="15" as="geometry" />
        </mxCell>
        <mxCell id="z_BVboNfzT4I1Vo-alxG-66" value="" style="rounded=0;whiteSpace=wrap;html=1;" vertex="1" parent="z_BVboNfzT4I1Vo-alxG-62">
          <mxGeometry x="60" width="10" height="15" as="geometry" />
        </mxCell>
        <mxCell id="z_BVboNfzT4I1Vo-alxG-67" value="" style="rounded=0;whiteSpace=wrap;html=1;" vertex="1" parent="z_BVboNfzT4I1Vo-alxG-62">
          <mxGeometry x="80" width="10" height="15" as="geometry" />
        </mxCell>
        <mxCell id="z_BVboNfzT4I1Vo-alxG-68" value="" style="rounded=0;whiteSpace=wrap;html=1;" vertex="1" parent="z_BVboNfzT4I1Vo-alxG-62">
          <mxGeometry x="100" width="10" height="15" as="geometry" />
        </mxCell>
        <mxCell id="z_BVboNfzT4I1Vo-alxG-69" value="" style="rounded=0;whiteSpace=wrap;html=1;" vertex="1" parent="z_BVboNfzT4I1Vo-alxG-62">
          <mxGeometry x="120" width="10" height="15" as="geometry" />
        </mxCell>
        <mxCell id="z_BVboNfzT4I1Vo-alxG-70" value="" style="rounded=0;whiteSpace=wrap;html=1;" vertex="1" parent="z_BVboNfzT4I1Vo-alxG-62">
          <mxGeometry x="140" width="10" height="15" as="geometry" />
        </mxCell>
        <mxCell id="z_BVboNfzT4I1Vo-alxG-71" value="" style="rounded=0;whiteSpace=wrap;html=1;" vertex="1" parent="z_BVboNfzT4I1Vo-alxG-62">
          <mxGeometry x="160" width="10" height="15" as="geometry" />
        </mxCell>
        <mxCell id="z_BVboNfzT4I1Vo-alxG-72" value="" style="rounded=0;whiteSpace=wrap;html=1;" vertex="1" parent="z_BVboNfzT4I1Vo-alxG-62">
          <mxGeometry x="180" width="10" height="15" as="geometry" />
        </mxCell>
        <mxCell id="z_BVboNfzT4I1Vo-alxG-73" value="" style="rounded=0;whiteSpace=wrap;html=1;" vertex="1" parent="z_BVboNfzT4I1Vo-alxG-62">
          <mxGeometry x="200" width="10" height="15" as="geometry" />
        </mxCell>
        <mxCell id="z_BVboNfzT4I1Vo-alxG-74" value="" style="rounded=0;whiteSpace=wrap;html=1;" vertex="1" parent="z_BVboNfzT4I1Vo-alxG-62">
          <mxGeometry x="220" width="10" height="15" as="geometry" />
        </mxCell>
        <mxCell id="z_BVboNfzT4I1Vo-alxG-76" value="" style="shape=mxgraph.cisco.switches.atm_fast_gigabit_etherswitch;sketch=0;html=1;pointerEvents=1;dashed=0;fillColor=#036897;strokeColor=#ffffff;strokeWidth=2;verticalLabelPosition=bottom;verticalAlign=top;align=center;outlineConnect=0;" vertex="1" parent="1">
          <mxGeometry x="700" y="150" width="40" height="30" as="geometry" />
        </mxCell>
        <mxCell id="z_BVboNfzT4I1Vo-alxG-81" value="" style="rounded=1;whiteSpace=wrap;html=1;" vertex="1" parent="1">
          <mxGeometry x="160" y="400" width="600" height="60" as="geometry" />
        </mxCell>
        <mxCell id="z_BVboNfzT4I1Vo-alxG-82" value="" style="shape=mxgraph.cisco.routers.content_service_router;sketch=0;html=1;pointerEvents=1;dashed=0;fillColor=#036897;strokeColor=#ffffff;strokeWidth=2;verticalLabelPosition=bottom;verticalAlign=top;align=center;outlineConnect=0;" vertex="1" parent="1">
          <mxGeometry x="710" y="410" width="38" height="30" as="geometry" />
        </mxCell>
      </root>
    </mxGraphModel>
  </diagram>
</mxfile>
